<svg width="1920" height="1080" viewBox="0 0 1920 1080" fill="none" xmlns="http://www.w3.org/2000/svg">
<g clip-path="url(#clip0_2834_17648)">
<rect width="1920" height="1080" fill="#FFE2C3"/>
<path fill-rule="evenodd" clip-rule="evenodd" d="M1255.9 220.555C1229.19 133.962 1190.67 58.81 1127.84 0.000507355L1196.79 0C1247.58 59.7824 1280.35 130.176 1303.68 205.818C1330.5 292.766 1345.31 388.372 1360.15 484.199C1361.26 491.328 1362.36 498.458 1363.47 505.587C1395.86 713.649 1434.91 923.569 1591.5 1080.5L1522.71 1080C1379.82 914.801 1344.09 706.146 1314.07 513.278C1313 506.426 1311.94 499.595 1310.89 492.788C1295.88 395.979 1281.59 303.861 1255.9 220.555ZM1920 298C1812.22 214.032 1742.23 108.998 1698.66 0L1752.78 0.000336409C1789.55 85.7617 1841.71 165.206 1920 233.343V298ZM664.43 779.511C406.946 691.727 205.801 824.414 -0.0012207 990.501V985.271L0.000113964 925.698H-0.0012207C196.937 769.889 408.643 639.479 680.565 732.186C778.789 765.674 850.024 816.476 902.493 880.033C950.781 938.527 982.339 1006.81 1005.01 1080H952.508C931.586 1016.8 903.747 960.091 863.934 911.865C817.755 855.926 754.493 810.217 664.43 779.511Z" fill="#BFCDFF"/>
</g>
<defs>
<clipPath id="clip0_2834_17648">
<rect width="1920" height="1080" fill="white"/>
</clipPath>
</defs>
</svg>
