<svg width="1920" height="1080" viewBox="0 0 1920 1080" fill="none" xmlns="http://www.w3.org/2000/svg">
<g clip-path="url(#clip0_2802_16303)">
<rect width="1920" height="1080" fill="#FFE2C3"/>
<path d="M1168.5 1080H1609C1358 927 1362.5 681.5 1311.5 370.5C1280.01 178.467 1232 67 1190 -0.5H623.75H57.5C57.1 -0.1 19 32.3333 0 48.5L-1 461C143.5 358.5 282.632 217.794 451 106.5C559.819 34.5686 713.5 3.5 858 103C933.926 161.956 976.809 254.439 1003 472.5C1047.5 843 1110.5 982 1168.5 1080Z" fill="#FFCAB9"/>
<path d="M1920 562C1561.5 436 1431.5 179.5 1377 -0.5H1720.5C1770.9 115.5 1874.5 189.833 1920 212.5V562Z" fill="#FFCAB9"/>
<path d="M546 621.999C311.306 550.745 104.5 639.999 0.5 700.999V1080.5H13C124.5 994.999 233.5 913.277 364.5 914.499C536.1 916.099 619 1025.83 639 1080.5H978.5C935 913.999 837.5 710.5 546 621.999Z" fill="#FFCAB9"/>
</g>
<defs>
<clipPath id="clip0_2802_16303">
<rect width="1920" height="1080" fill="white"/>
</clipPath>
</defs>
</svg>
