<svg width="1728" height="782" viewBox="0 0 1728 782" fill="none" xmlns="http://www.w3.org/2000/svg">
<path fill-rule="evenodd" clip-rule="evenodd" d="M1000.31 179.499C976.271 101.566 941.599 33.929 885.059 -18.9995L947.108 -19C992.819 34.8041 1022.31 98.1581 1043.31 166.236C1067.45 244.489 1080.78 330.535 1094.14 416.779C1095.13 423.195 1096.12 429.613 1097.12 436.028C1126.28 623.284 1161.42 812.213 1302.35 953.451L1240.44 953.001C1111.84 804.321 1079.68 616.532 1052.66 442.951C1051.7 436.783 1050.75 430.636 1049.8 424.509C1036.29 337.381 1023.43 254.475 1000.31 179.499ZM1728 249.2C1631 173.629 1568 79.098 1528.8 -19L1577.5 -18.9997C1610.6 58.1855 1657.54 129.685 1728 191.009V249.2ZM597.986 682.56C366.25 603.554 185.22 722.973 -0.00195312 872.451V867.744L-0.000751925 814.128H-0.00195312C177.242 673.9 367.777 556.531 612.508 639.968C700.909 670.106 765.021 715.828 812.243 773.03C855.702 825.674 884.104 887.128 904.505 953.001H857.256C838.426 896.12 813.371 845.082 777.54 801.678C735.979 751.334 679.043 710.195 597.986 682.56Z" fill="#FFCAB9"/>
</svg>
