<svg width="112" height="62" viewBox="0 0 112 62" fill="none" xmlns="http://www.w3.org/2000/svg">
<path fill-rule="evenodd" clip-rule="evenodd" d="M87.9039 27.2859C86.6438 28.7057 84.98 29.3623 83.4333 29.3681C82.3113 29.3885 80.536 29.027 79.0799 27.7191C77.5317 26.3284 76.6163 24.1165 76.9027 20.9982C76.7824 21.0441 76.6623 21.0883 76.5425 21.1308C76.5475 21.2639 76.55 21.3966 76.5501 21.5288C76.5508 23.2248 76.1519 24.9957 75.285 26.4427C74.403 27.9146 72.9633 29.1429 70.965 29.3635C69.2618 29.5515 67.7742 29.1552 66.6185 28.2104C65.5064 27.3012 64.8911 26.0393 64.5704 24.8237C64.3316 23.9189 64.232 22.9519 64.2408 21.9991C63.7271 22.1025 63.232 22.215 62.7556 22.3366C62.5555 22.9812 62.3172 23.6135 62.0553 24.2229C61.0669 26.5225 59.6395 28.7366 58.1943 30.4747C57.4698 31.3459 56.7186 32.1245 55.9882 32.7459C55.2861 33.3432 54.4899 33.8934 53.6747 34.1714C52.8697 34.4459 51.4744 34.5979 50.4987 33.4142C49.7344 32.4869 49.7222 31.239 49.8244 30.2916C50.2231 26.5956 52.0488 23.7207 54.9832 21.6656C56.3157 20.7325 57.8633 19.9763 59.5916 19.3744C59.6642 18.7598 59.6577 18.1979 59.569 17.7028C59.4702 17.1511 59.3333 16.9081 59.2728 16.8267C59.2681 16.8203 59.264 16.8151 59.2605 16.8108C59.1352 16.7962 58.6574 16.8295 57.7112 17.3696C55.8154 18.4518 53.5349 20.6968 51.9868 22.5221L49.0054 20.2683C51.5037 16.5127 53.0157 12.5983 53.4581 9.64251C53.682 8.14701 53.6073 7.0595 53.3887 6.39674C53.1952 5.81002 52.9794 5.74518 52.8303 5.71671C52.8163 5.71404 52.804 5.71325 52.781 5.71767C52.7539 5.72289 52.6938 5.73935 52.5975 5.79272C52.3908 5.90741 52.0906 6.15182 51.7171 6.6088C50.9648 7.52952 50.1803 8.98129 49.4123 10.805C48.0029 14.1521 46.8254 18.3187 46.0197 21.5527C46.0498 25.8668 46.2376 29.89 46.6168 32.6766L42.9103 33.1832C41.9857 26.3878 42.1463 13.1467 42.9012 5.01382L46.6259 5.36108C46.5383 6.30469 46.4591 7.31722 46.389 8.37978C47.1049 6.80586 47.9148 5.34494 48.823 4.23354C49.8532 2.97271 51.4586 1.63846 53.5303 2.03395C55.3451 2.38042 56.4385 3.69802 56.9405 5.22011C57.4175 6.66615 57.4247 8.41379 57.1575 10.1986C56.9842 11.3567 56.6848 12.5996 56.2675 13.8897C57.385 13.3101 58.7811 12.8364 60.1595 13.1702C62.0035 13.6166 62.9245 15.2175 63.251 17.0405C63.328 17.4704 63.3693 17.9076 63.3795 18.3488C63.8088 18.2608 64.2456 18.1795 64.6895 18.1046C64.6705 17.9576 64.6594 17.8072 64.6567 17.6534C64.6325 16.3031 65.3427 15.1078 66.4913 14.379C67.6086 13.6701 69.0586 13.4337 70.66 13.6199C72.7441 13.8623 74.2694 15.0465 75.2222 16.5638C75.3998 16.8466 75.5581 17.1411 75.6979 17.4444C76.9322 16.9551 78.1613 16.2271 79.2025 15.1599L79.2138 15.171C79.2987 15.0854 79.3856 15.0029 79.4743 14.9235C80.8328 13.7076 82.37 13.4418 83.4125 13.4419C84.2749 13.4419 85.4431 13.6902 86.5609 14.3639C86.9925 10.1703 87.9218 5.61382 89.1168 0.310547L92.7657 1.13641C90.5947 10.7705 89.4729 17.2992 90.3193 23.5194C90.5208 25.0004 91.3907 25.7 92.0612 25.8705C92.3679 25.9486 92.6398 25.9246 92.8602 25.8356C92.3283 24.8049 92.2071 23.6256 92.2259 22.5638C92.2636 20.4275 92.9212 17.7244 93.5374 15.1916L93.5386 15.1869C93.6503 14.7278 93.7606 14.2743 93.8656 13.8308L97.5053 14.6964C97.3845 15.2066 97.2641 15.7048 97.1468 16.1898L97.1468 16.19C96.527 18.7534 95.9957 20.9509 95.9661 22.6301C95.9487 23.6147 96.123 24.0486 96.2418 24.2094L96.2442 24.2127C96.2828 24.2656 96.4409 24.4822 97.2325 24.4822C97.4145 24.4822 98.2665 24.241 99.5643 22.3209C100.774 20.5319 102.073 17.7035 103.281 13.7187L106.923 14.5215C106.376 18.4734 106.04 21.4147 105.771 23.7825V23.7826L105.771 23.7828C105.66 24.7493 105.561 25.6202 105.463 26.4254C105.397 26.9622 105.332 27.4697 105.264 27.9552C107.126 27.4047 108.395 26.7332 109.096 25.8851L111.978 28.2753C110.327 30.2748 107.653 31.2526 105.112 31.8771C104.9 31.9292 104.685 31.9798 104.467 32.0289C104.345 32.4719 104.21 32.9149 104.057 33.3665C101.8 40.042 97.9667 43.2779 94.1082 43.9168C90.5214 44.5107 86.7134 42.6699 86.1095 39.2977C85.834 37.7596 85.9421 36.3426 86.4848 35.0811C87.0264 33.8219 87.9313 32.8793 88.978 32.1699C90.9854 30.8093 93.7632 30.15 96.3752 29.6682C97.3548 29.4874 98.3151 29.3306 99.2542 29.1772L99.2551 29.1771L99.2556 29.177C99.9639 29.0613 100.66 28.9476 101.343 28.8271C101.489 27.9904 101.616 27.0636 101.75 25.9698L101.77 25.8007L101.796 25.5834C100.53 27.1107 98.9987 28.2312 97.2325 28.2312C96.8053 28.2312 96.3905 28.1948 95.994 28.1179C94.7165 29.4811 92.8793 29.9464 91.141 29.5043C89.8725 29.1817 88.7322 28.4053 87.9039 27.2859ZM57.8927 24.2455C57.6244 24.4042 57.3689 24.5686 57.1259 24.7387C55.2786 26.0324 54.1266 27.6761 53.6862 29.785C54.1878 29.3441 54.7464 28.7651 55.3205 28.0746C56.2382 26.971 57.1464 25.6419 57.8927 24.2455ZM80.6329 21.2871C80.8485 19.0804 81.5045 18.1328 81.966 17.7197C82.4342 17.3007 82.9715 17.1908 83.4125 17.1908C83.7232 17.1908 84.4297 17.3393 85.0325 17.8688C85.5653 18.3367 86.1832 19.2466 86.1832 21.1045C86.1832 23.0763 85.6411 24.1945 85.1089 24.7943C84.5697 25.4019 83.9224 25.6191 83.4125 25.6191H83.3912L83.37 25.6196C82.978 25.6286 82.1845 25.4734 81.5767 24.9274C81.0642 24.467 80.4176 23.4919 80.6329 21.2871ZM100.287 32.808C100.071 32.8435 99.8569 32.8787 99.6438 32.9136L99.6436 32.9137L99.6429 32.9138L99.6421 32.9139C98.7417 33.0615 97.8656 33.2052 97.0524 33.3552C94.4122 33.8423 92.3594 34.4039 91.0737 35.2753C90.4738 35.6819 90.1166 36.108 89.9199 36.5652C89.7243 37.02 89.618 37.667 89.7914 38.6354C89.9094 39.2942 91.155 40.606 93.4984 40.2179C95.4917 39.8879 98.3196 38.1345 100.287 32.808ZM68.1869 23.8654C68.0103 23.1961 67.9559 22.434 67.9914 21.6887C68.7885 21.9663 69.6789 22.1161 70.6057 22.1236C71.2007 22.1284 71.9491 22.0986 72.7941 21.9975C72.7303 22.9714 72.4686 23.8606 72.0779 24.5127C71.6405 25.2428 71.1198 25.5748 70.5553 25.6371C69.6957 25.732 69.2491 25.5229 68.9831 25.3054C68.6734 25.0523 68.3793 24.5948 68.1869 23.8654ZM70.2288 17.3439C70.9259 17.425 71.4688 17.7576 71.8934 18.3232C71.4293 18.3636 71.0046 18.3777 70.636 18.3747C69.5737 18.3661 68.9614 18.1 68.6648 17.8838C68.4955 17.7604 68.4319 17.6617 68.4086 17.6107C68.425 17.5947 68.4514 17.5725 68.4923 17.5465C68.6826 17.4258 69.2027 17.2246 70.2288 17.3439ZM28.6334 47.7864V55.7012H31.1994V47.2721C31.1994 46.2054 30.9713 45.2625 30.5151 44.4434C30.059 43.6243 29.4317 42.9861 28.6334 42.5289C27.8541 42.0718 26.9513 41.8432 25.9249 41.8432C24.8985 41.8432 23.9767 42.0813 23.1593 42.5575C22.5437 42.9019 22.0305 43.3435 21.6198 43.8825V35.2999H19.0538V55.7012H21.6198V47.7864C21.6198 47.1007 21.7718 46.4911 22.0759 45.9577C22.38 45.4244 22.7982 45.0053 23.3304 44.7005C23.8626 44.3957 24.4708 44.2433 25.1551 44.2433C26.1815 44.2433 27.0178 44.5767 27.664 45.2434C28.3103 45.9101 28.6334 46.7578 28.6334 47.7864ZM6.03923 55.2155C7.25569 55.7298 8.5767 55.987 10.0022 55.987C11.5418 55.987 12.9199 55.7203 14.1363 55.1869C15.3718 54.6535 16.4457 53.9106 17.358 52.9582L15.5048 51.1295C14.8776 51.8343 14.1078 52.3963 13.1955 52.8153C12.2831 53.2154 11.2092 53.4154 9.97373 53.4154C8.92833 53.4154 7.96847 53.2344 7.09413 52.8725C6.2198 52.4915 5.45951 51.9581 4.81326 51.2724C4.16702 50.5866 3.66333 49.777 3.30219 48.8436C2.96006 47.9102 2.78899 46.8911 2.78899 45.7863C2.78899 44.6815 2.96006 43.6624 3.30219 42.729C3.66333 41.7956 4.16702 40.986 4.81326 40.3002C5.45951 39.6145 6.2198 39.0906 7.09413 38.7287C7.96847 38.3477 8.92833 38.1572 9.97373 38.1572C11.1332 38.1572 12.1596 38.3573 13.0529 38.7573C13.9653 39.1573 14.735 39.7097 15.3623 40.4145L17.2155 38.5573C16.3031 37.6429 15.2577 36.9191 14.0793 36.3857C12.9008 35.8523 11.5323 35.5856 9.97373 35.5856C8.54819 35.5856 7.22719 35.8523 6.01072 36.3857C4.81326 36.9 3.75836 37.6239 2.84602 38.5573C1.95267 39.4716 1.25891 40.5479 0.764725 41.786C0.270531 43.0242 0.0234375 44.3576 0.0234375 45.7863C0.0234375 47.1959 0.270531 48.5198 0.764725 49.758C1.25891 50.9962 1.95267 52.0819 2.84602 53.0153C3.75836 53.9487 4.82277 54.6821 6.03923 55.2155ZM38.9487 55.987C37.7133 55.987 36.5919 55.6822 35.5845 55.0726C34.5771 54.444 33.7788 53.5963 33.1896 52.5296C32.6193 51.4629 32.3342 50.2628 32.3342 48.9294C32.3342 47.5959 32.6193 46.3959 33.1896 45.3291C33.7788 44.2624 34.5676 43.4147 35.556 42.7861C36.5633 42.1575 37.6943 41.8432 38.9487 41.8432C39.9751 41.8432 40.8875 42.0623 41.6858 42.5004C42.3975 42.8653 42.9868 43.3603 43.4535 43.9852V42.1289H46.048V55.7012H43.4535V53.8549C43.0022 54.4776 42.4224 54.9788 41.7143 55.3584C40.916 55.7774 39.9942 55.987 38.9487 55.987ZM39.3764 53.5582C40.6499 53.5582 41.6763 53.1296 42.4556 52.2724C43.2349 51.3962 43.6245 50.2818 43.6245 48.9294C43.6245 47.996 43.444 47.1864 43.0828 46.5006C42.7407 45.7958 42.2465 45.2529 41.6003 44.872C40.954 44.4719 40.2032 44.2719 39.3479 44.2719C38.4926 44.2719 37.7323 44.4719 37.067 44.872C36.4208 45.272 35.9076 45.8244 35.5275 46.5292C35.1663 47.215 34.9857 48.0055 34.9857 48.9008C34.9857 49.8151 35.1663 50.6247 35.5275 51.3295C35.9076 52.0153 36.4303 52.5582 37.0955 52.9582C37.7608 53.3582 38.5211 53.5582 39.3764 53.5582ZM47.9563 35.2999V55.7012H50.5223V35.2999H47.9563ZM52.0613 55.7012V35.2999H54.6272V55.7012H52.0613ZM59.331 55.057C60.4144 55.6665 61.6309 55.9713 62.9804 55.9713C64.0448 55.9713 65.0427 55.7713 65.9741 55.3713C66.9244 54.9713 67.7227 54.3903 68.369 53.6283L66.7153 51.9425C66.2592 52.4759 65.708 52.8759 65.0617 53.1426C64.4345 53.4092 63.7407 53.5426 62.9804 53.5426C62.0681 53.5426 61.2603 53.3521 60.557 52.9711C59.8537 52.5711 59.312 52.0187 58.9319 51.3139C58.6993 50.8709 58.5378 50.3852 58.4475 49.8566H69.0532C69.1103 49.5709 69.1483 49.3233 69.1673 49.1137C69.1863 48.8851 69.1958 48.6756 69.1958 48.4851C69.1958 47.2088 68.9202 46.0659 68.369 45.0563C67.8368 44.0467 67.086 43.2562 66.1166 42.6848C65.1662 42.1133 64.0638 41.8275 62.8094 41.8275C61.4979 41.8275 60.3099 42.1419 59.2455 42.7705C58.2001 43.38 57.3638 44.2182 56.7365 45.2849C56.1283 46.3517 55.8242 47.5517 55.8242 48.8851C55.8242 50.2376 56.1378 51.4472 56.7651 52.514C57.3923 53.5807 58.2476 54.4284 59.331 55.057ZM58.4527 47.7136C58.5401 47.2229 58.6903 46.7753 58.9034 46.3707C59.2645 45.6849 59.7777 45.1516 60.4429 44.7706C61.1082 44.3896 61.878 44.1991 62.7523 44.1991C63.5887 44.1991 64.3014 44.3801 64.8906 44.742C65.4799 45.0849 65.9361 45.5802 66.2592 46.2278C66.4796 46.6566 66.6248 47.1519 66.6949 47.7136H58.4527ZM79.9731 55.6832V47.7684C79.9731 46.7398 79.65 45.8921 79.0038 45.2254C78.3575 44.5587 77.5212 44.2253 76.4948 44.2253C75.8105 44.2253 75.2023 44.3777 74.6701 44.6825C74.1379 44.9873 73.7197 45.4064 73.4156 45.9397C73.1115 46.4731 72.9594 47.0827 72.9594 47.7684V55.6832H70.3935V42.1109H72.9594V43.8645C73.3702 43.3255 73.8834 42.8839 74.499 42.5395C75.3163 42.0633 76.2382 41.8252 77.2646 41.8252C78.291 41.8252 79.1938 42.0824 79.9731 42.5967C80.7714 43.111 81.3987 43.7872 81.8548 44.6254C82.311 45.4445 82.5391 46.3207 82.5391 47.2541V55.6832H79.9731ZM102.091 55.0841C103.174 55.6937 104.391 55.9985 105.74 55.9985C106.805 55.9985 107.803 55.7985 108.734 55.3984C109.684 54.9984 110.483 54.4174 111.129 53.6555L109.475 51.9696C109.019 52.503 108.468 52.903 107.822 53.1697C107.195 53.4364 106.501 53.5697 105.74 53.5697C104.828 53.5697 104.02 53.3793 103.317 52.9983C102.614 52.5983 102.072 52.0458 101.692 51.341C101.459 50.8981 101.298 50.4123 101.208 49.8838H111.813C111.87 49.5981 111.908 49.3504 111.927 49.1409C111.946 48.9123 111.956 48.7028 111.956 48.5123C111.956 47.236 111.68 46.0931 111.129 45.0835C110.597 44.0739 109.846 43.2834 108.877 42.7119C107.926 42.1404 106.824 41.8547 105.569 41.8547C104.258 41.8547 103.07 42.169 102.006 42.7976C100.96 43.4072 100.124 44.2453 99.4966 45.3121C98.8884 46.3788 98.5842 47.5789 98.5842 48.9123C98.5842 50.2648 98.8978 51.4744 99.5251 52.5411C100.152 53.6078 101.008 54.4555 102.091 55.0841ZM101.213 47.7408C101.3 47.2501 101.45 46.8024 101.663 46.3979C102.025 45.7121 102.538 45.1787 103.203 44.7978C103.868 44.4168 104.638 44.2263 105.512 44.2263C106.349 44.2263 107.061 44.4073 107.651 44.7692C108.24 45.1121 108.696 45.6073 109.019 46.255C109.24 46.6838 109.385 47.1791 109.455 47.7408H101.213ZM6.69249 12.2286V29.4474H9.34881V12.2286H15.9896V9.79298H0.0234375V12.2286H6.69249ZM14.5301 28.7961C15.5851 29.4191 16.772 29.7307 18.0907 29.7307C19.3906 29.7307 20.568 29.4191 21.623 28.7961C22.6969 28.173 23.5446 27.3328 24.1663 26.2755C24.788 25.1994 25.0988 24.0005 25.0988 22.6788C25.0988 21.3761 24.788 20.1961 24.1663 19.1388C23.5446 18.0815 22.6969 17.2507 21.623 16.6466C20.568 16.0235 19.3906 15.712 18.0907 15.712C16.772 15.712 15.5851 16.0235 14.5301 16.6466C13.4751 17.2696 12.6368 18.1098 12.0151 19.1671C11.3934 20.2055 11.0825 21.3761 11.0825 22.6788C11.0825 24.0005 11.3934 25.1994 12.0151 26.2755C12.6368 27.3328 13.4751 28.173 14.5301 28.7961ZM20.3514 26.672C19.692 27.0685 18.9385 27.2668 18.0907 27.2668C17.2429 27.2668 16.4894 27.0685 15.83 26.672C15.1706 26.2755 14.6526 25.7375 14.2758 25.0578C13.899 24.3592 13.7106 23.5662 13.7106 22.6788C13.7106 21.8103 13.899 21.0362 14.2758 20.3566C14.6526 19.6769 15.1706 19.1482 15.83 18.7706C16.4894 18.3741 17.2429 18.1759 18.0907 18.1759C18.9385 18.1759 19.6826 18.3741 20.3231 18.7706C20.9825 19.1482 21.5006 19.6769 21.8774 20.3566C22.273 21.0362 22.4708 21.8103 22.4708 22.6788C22.4708 23.5662 22.2824 24.3592 21.9056 25.0578C21.5288 25.7375 21.0108 26.2755 20.3514 26.672ZM33.2245 29.7307C32.2072 29.7307 31.2841 29.523 30.4551 29.1076C29.7497 28.7294 29.1657 28.2296 28.7031 27.608V35.0832H26.1598V15.9952H28.7031V17.844C29.1811 17.2203 29.7746 16.7268 30.4834 16.3634C31.3123 15.9291 32.226 15.712 33.2245 15.712C34.449 15.712 35.5511 16.0235 36.5308 16.6466C37.5292 17.2696 38.3111 18.1098 38.8762 19.1671C39.4414 20.2244 39.724 21.4138 39.724 22.7355C39.724 24.0571 39.4414 25.2466 38.8762 26.3039C38.3111 27.3612 37.5292 28.2013 36.5308 28.8244C35.5511 29.4286 34.449 29.7307 33.2245 29.7307ZM32.8006 27.3234C33.6484 27.3234 34.3925 27.1252 35.0331 26.7287C35.6736 26.3322 36.1822 25.7941 36.559 25.1144C36.9358 24.4158 37.1242 23.6134 37.1242 22.7072C37.1242 21.8198 36.9358 21.0268 36.559 20.3282C36.1822 19.6297 35.6736 19.0916 35.0331 18.714C34.3925 18.3175 33.6578 18.1192 32.8289 18.1192C31.9811 18.1192 31.237 18.3175 30.5964 18.714C29.9559 19.0916 29.4567 19.6297 29.0987 20.3282C28.7408 21.0268 28.5618 21.8292 28.5618 22.7355C28.5618 23.6229 28.7314 24.4158 29.0705 25.1144C29.4284 25.7941 29.9276 26.3322 30.5682 26.7287C31.2275 27.1252 31.9717 27.3234 32.8006 27.3234ZM86.8712 42.7886C85.6581 43.5116 83.7328 45.4105 83.7379 48.6282C83.7443 52.7203 86.6277 55.4843 90.241 55.4843C92.6695 55.4843 94.1499 54.2738 94.7994 53.364V55.1322C94.8529 57.1589 93.407 59.2262 90.4204 59.2291C87.4602 59.2319 86.2244 57.7717 85.6884 57.1383C85.6638 57.1092 85.6407 57.0819 85.6189 57.0566L83.9617 58.7463C84.7039 59.7923 86.4501 61.677 90.2957 61.6881C95.0653 61.7019 97.3864 58.311 97.3741 55.3434C97.3657 53.3161 97.3652 46.8629 97.3652 43.8783C96.5676 44.3003 95.022 44.9482 93.2169 45.027C93.8386 45.4403 94.8706 46.6554 94.9399 48.4989C95.0446 51.2834 93.2645 53.163 90.5469 53.0627C87.6919 52.9573 86.3878 50.6941 86.3851 48.7873C86.3819 46.5363 87.5976 44.9442 89.4878 44.4347C88.9788 44.2505 87.7867 43.7092 86.8712 42.7886Z" fill="black"/>
</svg>
