<svg
  width="116"
  height="62"
  viewBox="0 0 116 62"
  fill="none"
  xmlns="http://www.w3.org/2000/svg"
>
  <path
    fillRule="evenodd"
    clipRule="evenodd"
    d="M89.9033 27.286C88.6432 28.7058 86.9794 29.3623 85.4327 29.3681C84.3107 29.3886 82.5354 29.027 81.0793 27.7191C79.5311 26.3285 78.6157 24.1165 78.9021 20.9982C78.7818 21.0442 78.6617 21.0884 78.5419 21.1308C78.5469 21.264 78.5494 21.3967 78.5494 21.5288C78.5502 23.2248 78.1513 24.9958 77.2843 26.4427C76.4024 27.9147 74.9627 29.1429 72.9643 29.3635C71.2612 29.5516 69.7736 29.1553 68.6179 28.2105C67.5058 27.3013 66.8905 26.0394 66.5698 24.8238C66.331 23.9189 66.2314 22.9519 66.2402 21.9991C65.7265 22.1025 65.2314 22.215 64.755 22.3366C64.5549 22.9813 64.3166 23.6135 64.0546 24.2229C63.0663 26.5225 61.6389 28.7367 60.1937 30.4747C59.4692 31.3459 58.7179 32.1246 57.9876 32.7459C57.2854 33.3432 56.4893 33.8934 55.6741 34.1714C54.8691 34.446 53.4738 34.5979 52.4981 33.4142C51.7338 32.4869 51.7216 31.239 51.8238 30.2916C52.2225 26.5957 54.0482 23.7207 56.9826 21.6657C58.3151 20.7326 59.8627 19.9764 61.591 19.3744C61.6636 18.7598 61.6571 18.198 61.5684 17.7028C61.4696 17.1511 61.3327 16.9081 61.2722 16.8267C61.2675 16.8204 61.2634 16.8151 61.2598 16.8109C61.1346 16.7962 60.6568 16.8295 59.7106 17.3697C57.8148 18.4519 55.5343 20.6968 53.9862 22.5221L51.0048 20.2683C53.5031 16.5128 55.0151 12.5983 55.4575 9.64254C55.6814 8.14704 55.6067 7.05953 55.3881 6.39677C55.1946 5.81005 54.9787 5.74521 54.8297 5.71674C54.8157 5.71407 54.8034 5.71328 54.7804 5.7177C54.7533 5.72292 54.6932 5.73938 54.5969 5.79276C54.3902 5.90744 54.0899 6.15185 53.7165 6.60883C52.9642 7.52955 52.1797 8.98133 51.4117 10.805C50.0023 14.1521 48.8248 18.3187 48.0191 21.5527C48.0492 25.8668 48.237 29.8901 48.6161 32.6767L44.9097 33.1832C43.9851 26.3879 44.1456 13.1467 44.9005 5.01386L48.6253 5.36111C48.5377 6.30472 48.4585 7.31726 48.3884 8.37982C49.1043 6.80589 49.9142 5.34497 50.8224 4.23358C51.8526 2.97274 53.458 1.63849 55.5297 2.03399C57.3445 2.38045 58.4379 3.69805 58.9399 5.22014C59.4169 6.66617 59.4241 8.41382 59.1569 10.1987C58.9836 11.3567 58.6842 12.5996 58.2668 13.8898C59.3843 13.3101 60.7805 12.8364 62.1589 13.1702C64.0029 13.6167 64.9239 15.2175 65.2504 17.0405C65.3274 17.4704 65.3687 17.9076 65.3789 18.3488C65.8082 18.2608 66.2449 18.1795 66.6889 18.1046C66.6699 17.9577 66.6588 17.8072 66.6561 17.6535C66.6319 16.3031 67.3421 15.1078 68.4907 14.3791C69.608 13.6701 71.058 13.4337 72.6594 13.62C74.7435 13.8624 76.2688 15.0465 77.2216 16.5638C77.3992 16.8466 77.5575 17.1412 77.6973 17.4445C78.9315 16.9551 80.1607 16.2271 81.2019 15.1599L81.2132 15.171C81.2981 15.0854 81.385 15.0029 81.4737 14.9235C82.8322 13.7076 84.3694 13.4419 85.4119 13.4419C86.2743 13.4419 87.4425 13.6902 88.5603 14.3639C88.9919 10.1704 89.9211 5.61385 91.1162 0.310577L94.7651 1.13644C92.5941 10.7706 91.4723 17.2992 92.3187 23.5194C92.5202 25.0004 93.3901 25.7 94.0606 25.8706C94.3673 25.9486 94.6392 25.9247 94.8596 25.8356C94.3276 24.8049 94.2065 23.6257 94.2253 22.5638C94.263 20.4275 94.9206 17.7245 95.5368 15.1916C95.6489 14.7309 95.7596 14.2759 95.865 13.8309L99.5047 14.6964C99.3839 15.2066 99.2635 15.7048 99.1462 16.1898L99.1462 16.19C98.5264 18.7534 97.9951 20.9509 97.9655 22.6302C97.9481 23.6148 98.1224 24.0486 98.2412 24.2094L98.2436 24.2127C98.2822 24.2656 98.4403 24.4822 99.2319 24.4822C99.4139 24.4822 100.266 24.241 101.564 22.3209C102.773 20.5319 104.072 17.7036 105.28 13.7188L108.923 14.5215C108.375 18.4735 108.04 21.4148 107.77 23.7827L107.77 23.7829C107.66 24.7493 107.561 25.6203 107.462 26.4254C107.397 26.9622 107.331 27.4698 107.264 27.9552C109.126 27.4047 110.395 26.7332 111.095 25.8851L113.977 28.2753C112.326 30.2748 109.652 31.2526 107.112 31.8772C106.9 31.9293 106.684 31.9798 106.466 32.0289C106.345 32.4719 106.21 32.915 106.057 33.3666C103.8 40.042 99.9661 43.2779 96.1076 43.9168C92.5208 44.5107 88.7128 42.67 88.1088 39.2977C87.8334 37.7597 87.9415 36.3427 88.4841 35.0811C89.0258 33.8219 89.9307 32.8793 90.9774 32.1699C92.9848 30.8094 95.7626 30.1501 98.3746 29.6682C99.3542 29.4875 100.314 29.3306 101.254 29.1773L101.254 29.1771L101.255 29.177C101.963 29.0613 102.66 28.9476 103.343 28.8271C103.488 27.9904 103.616 27.0636 103.749 25.9698L103.77 25.8008L103.796 25.5834C102.53 27.1108 100.998 28.2312 99.2319 28.2312C98.8047 28.2312 98.3899 28.1948 97.9934 28.1179C96.7159 29.4812 94.8786 29.9464 93.1404 29.5044C91.8719 29.1817 90.7316 28.4053 89.9033 27.286ZM59.8921 24.2455C59.6238 24.4042 59.3682 24.5686 59.1253 24.7387C57.278 26.0324 56.126 27.6761 55.6856 29.785C56.1871 29.3441 56.7458 28.7651 57.3199 28.0747C58.2376 26.9711 59.1458 25.6419 59.8921 24.2455ZM82.6323 21.2871C82.8478 19.0804 83.5039 18.1328 83.9654 17.7198C84.4336 17.3008 84.9709 17.1909 85.4119 17.1909C85.7226 17.1909 86.4291 17.3393 87.0319 17.8688C87.5647 18.3367 88.1826 19.2466 88.1826 21.1045C88.1826 23.0763 87.6404 24.1945 87.1082 24.7943C86.5691 25.4019 85.9218 25.6192 85.4119 25.6192H85.3906L85.3694 25.6197C84.9774 25.6286 84.1839 25.4734 83.5761 24.9274C83.0636 24.4671 82.417 23.4919 82.6323 21.2871ZM102.286 32.808C102.071 32.8435 101.856 32.8787 101.643 32.9137L101.643 32.9137L101.642 32.9138L101.642 32.9139C100.741 33.0616 99.865 33.2052 99.0518 33.3552C96.4116 33.8423 94.3588 34.4039 93.073 35.2754C92.4732 35.6819 92.116 36.108 91.9193 36.5652C91.7237 37.02 91.6173 37.667 91.7908 38.6354C91.9088 39.2943 93.1543 40.606 95.4978 40.218C97.4911 39.8879 100.319 38.1345 102.286 32.808ZM70.1862 23.8654C70.0097 23.1961 69.9552 22.434 69.9908 21.6888C70.7878 21.9664 71.6783 22.1161 72.6051 22.1236C73.2001 22.1284 73.9485 22.0986 74.7935 21.9975C74.7297 22.9714 74.468 23.8606 74.0773 24.5128C73.6399 25.2428 73.1192 25.5748 72.5547 25.6371C71.6951 25.732 71.2485 25.523 70.9825 25.3054C70.6728 25.0523 70.3787 24.5949 70.1862 23.8654ZM72.2282 17.344C72.9253 17.425 73.4681 17.7576 73.8927 18.3232C73.4287 18.3636 73.004 18.3777 72.6354 18.3747C71.5731 18.3661 70.9608 18.1 70.6642 17.8838C70.4949 17.7604 70.4313 17.6617 70.408 17.6107C70.4244 17.5947 70.4508 17.5725 70.4917 17.5466C70.682 17.4258 71.2021 17.2246 72.2282 17.344ZM30.6328 47.7865V55.7013H33.1988V47.2721C33.1988 46.2054 32.9707 45.2625 32.5145 44.4434C32.0584 43.6243 31.4311 42.9862 30.6328 42.529C29.8535 42.0718 28.9507 41.8432 27.9243 41.8432C26.8979 41.8432 25.976 42.0813 25.1587 42.5576C24.5431 42.9019 24.0299 43.3436 23.6191 43.8825V35.2999H21.0532V55.7013H23.6191V47.7865C23.6191 47.1007 23.7712 46.4911 24.0753 45.9578C24.3794 45.4244 24.7976 45.0053 25.3298 44.7006C25.862 44.3958 26.4702 44.2434 27.1545 44.2434C28.1809 44.2434 29.0172 44.5767 29.6634 45.2434C30.3097 45.9102 30.6328 46.7578 30.6328 47.7865ZM8.03862 55.2155C9.25508 55.7298 10.5761 55.987 12.0016 55.987C13.5412 55.987 14.9192 55.7203 16.1357 55.1869C17.3712 54.6536 18.4451 53.9107 19.3574 52.9582L17.5042 51.1295C16.877 51.8343 16.1072 52.3963 15.1948 52.8154C14.2825 53.2154 13.2086 53.4154 11.9731 53.4154C10.9277 53.4154 9.96786 53.2344 9.09352 52.8725C8.21919 52.4915 7.4589 51.9582 6.81265 51.2724C6.16641 50.5866 5.66272 49.7771 5.30158 48.8437C4.95945 47.9103 4.78838 46.8912 4.78838 45.7863C4.78838 44.6815 4.95945 43.6624 5.30158 42.729C5.66272 41.7956 6.16641 40.986 6.81265 40.3003C7.4589 39.6145 8.21919 39.0907 9.09352 38.7287C9.96786 38.3478 10.9277 38.1573 11.9731 38.1573C13.1326 38.1573 14.159 38.3573 15.0523 38.7573C15.9646 39.1573 16.7344 39.7098 17.3617 40.4146L19.2149 38.5573C18.3025 37.643 17.2571 36.9191 16.0787 36.3857C14.9002 35.8524 13.5317 35.5857 11.9731 35.5857C10.5476 35.5857 9.22657 35.8524 8.01011 36.3857C6.81265 36.9 5.75775 37.6239 4.8454 38.5573C3.95206 39.4716 3.2583 40.5479 2.76411 41.7861C2.26992 43.0243 2.02283 44.3577 2.02283 45.7863C2.02283 47.1959 2.26992 48.5198 2.76411 49.758C3.2583 50.9962 3.95206 52.082 4.8454 53.0154C5.75775 53.9488 6.82216 54.6821 8.03862 55.2155ZM40.9481 55.987C39.7127 55.987 38.5912 55.6822 37.5839 55.0726C36.5765 54.444 35.7782 53.5964 35.1889 52.5296C34.6187 51.4629 34.3336 50.2628 34.3336 48.9294C34.3336 47.596 34.6187 46.3959 35.1889 45.3292C35.7782 44.2624 36.567 43.4148 37.5553 42.7861C38.5627 42.1575 39.6937 41.8432 40.9481 41.8432C41.9745 41.8432 42.8869 42.0623 43.6852 42.5004C44.3969 42.8654 44.9862 43.3603 45.4529 43.9853V42.129H48.0473V55.7013H45.4529V53.8549C45.0015 54.4776 44.4218 54.9788 43.7137 55.3584C42.9154 55.7775 41.9935 55.987 40.9481 55.987ZM41.3758 53.5583C42.6493 53.5583 43.6757 53.1297 44.455 52.2725C45.2343 51.3962 45.6239 50.2819 45.6239 48.9294C45.6239 47.996 45.4434 47.1864 45.0822 46.5007C44.7401 45.7959 44.2459 45.253 43.5997 44.872C42.9534 44.472 42.2026 44.2719 41.3473 44.2719C40.492 44.2719 39.7317 44.472 39.0664 44.872C38.4202 45.272 37.907 45.8244 37.5268 46.5292C37.1657 47.215 36.9851 48.0055 36.9851 48.9008C36.9851 49.8152 37.1657 50.6247 37.5268 51.3295C37.907 52.0153 38.4297 52.5582 39.0949 52.9582C39.7602 53.3582 40.5205 53.5583 41.3758 53.5583ZM49.9557 35.2999V55.7013H52.5217V35.2999H49.9557ZM54.0607 55.7013V35.2999H56.6266V55.7013H54.0607ZM61.3304 55.057C62.4138 55.6666 63.6303 55.9714 64.9798 55.9714C66.0442 55.9714 67.0421 55.7713 67.9735 55.3713C68.9238 54.9713 69.7221 54.3903 70.3684 53.6283L68.7147 51.9425C68.2586 52.4759 67.7074 52.8759 67.0611 53.1426C66.4339 53.4093 65.7401 53.5426 64.9798 53.5426C64.0675 53.5426 63.2597 53.3521 62.5564 52.9712C61.8531 52.5711 61.3114 52.0187 60.9313 51.3139C60.6987 50.871 60.5372 50.3852 60.4469 49.8567H71.0526C71.1096 49.5709 71.1477 49.3233 71.1667 49.1138C71.1857 48.8852 71.1952 48.6756 71.1952 48.4852C71.1952 47.2089 70.9196 46.066 70.3684 45.0564C69.8362 44.0468 69.0854 43.2562 68.116 42.6848C67.1656 42.1133 66.0632 41.8276 64.8088 41.8276C63.4972 41.8276 62.3093 42.1419 61.2449 42.7705C60.1995 43.3801 59.3632 44.2182 58.7359 45.2849C58.1277 46.3517 57.8236 47.5518 57.8236 48.8852C57.8236 50.2376 58.1372 51.4472 58.7644 52.514C59.3917 53.5807 60.247 54.4284 61.3304 55.057ZM60.4521 47.7137C60.5395 47.2229 60.6897 46.7753 60.9028 46.3707C61.2639 45.685 61.7771 45.1516 62.4423 44.7706C63.1076 44.3897 63.8774 44.1992 64.7517 44.1992C65.588 44.1992 66.3008 44.3801 66.89 44.7421C67.4793 45.0849 67.9354 45.5802 68.2586 46.2279C68.479 46.6567 68.6242 47.1519 68.6943 47.7137H60.4521ZM81.9725 55.6833V47.7685C81.9725 46.7398 81.6494 45.8922 81.0031 45.2254C80.3569 44.5587 79.5206 44.2254 78.4942 44.2254C77.8099 44.2254 77.2017 44.3778 76.6695 44.6826C76.1373 44.9873 75.7191 45.4064 75.415 45.9398C75.1109 46.4731 74.9588 47.0827 74.9588 47.7685V55.6833H72.3929V42.111H74.9588V43.8645C75.3696 43.3256 75.8828 42.8839 76.4984 42.5396C77.3157 42.0633 78.2376 41.8252 79.264 41.8252C80.2904 41.8252 81.1932 42.0824 81.9725 42.5967C82.7708 43.111 83.3981 43.7873 83.8542 44.6254C84.3104 45.4445 84.5385 46.3208 84.5385 47.2541V55.6833H81.9725ZM104.09 55.0842C105.174 55.6937 106.39 55.9985 107.74 55.9985C108.804 55.9985 109.802 55.7985 110.733 55.3985C111.684 54.9984 112.482 54.4174 113.128 53.6555L111.475 51.9697C111.019 52.503 110.467 52.9031 109.821 53.1698C109.194 53.4364 108.5 53.5698 107.74 53.5698C106.827 53.5698 106.02 53.3793 105.316 52.9983C104.613 52.5983 104.071 52.0459 103.691 51.3411C103.459 50.8981 103.297 50.4124 103.207 49.8838H113.813C113.87 49.5981 113.908 49.3505 113.927 49.1409C113.946 48.9123 113.955 48.7028 113.955 48.5123C113.955 47.236 113.68 46.0931 113.128 45.0835C112.596 44.0739 111.845 43.2834 110.876 42.7119C109.926 42.1405 108.823 41.8547 107.569 41.8547C106.257 41.8547 105.069 42.169 104.005 42.7977C102.96 43.4072 102.123 44.2454 101.496 45.3121C100.888 46.3788 100.584 47.5789 100.584 48.9123C100.584 50.2648 100.897 51.4744 101.524 52.5411C102.152 53.6079 103.007 54.4555 104.09 55.0842ZM103.212 47.7408C103.3 47.2501 103.45 46.8024 103.663 46.3979C104.024 45.7121 104.537 45.1788 105.202 44.7978C105.868 44.4168 106.637 44.2263 107.512 44.2263C108.348 44.2263 109.061 44.4073 109.65 44.7692C110.239 45.1121 110.695 45.6074 111.019 46.255C111.239 46.6838 111.384 47.1791 111.454 47.7408H103.212ZM8.69188 12.2286V29.4475H11.3482V12.2286H17.989V9.79302H2.02283V12.2286H8.69188ZM16.5295 28.7961C17.5845 29.4192 18.7713 29.7307 20.0901 29.7307C21.39 29.7307 22.5674 29.4192 23.6224 28.7961C24.6963 28.1731 25.544 27.3329 26.1657 26.2756C26.7874 25.1994 27.0982 24.0005 27.0982 22.6789C27.0982 21.3761 26.7874 20.1961 26.1657 19.1388C25.544 18.0815 24.6963 17.2508 23.6224 16.6466C22.5674 16.0235 21.39 15.712 20.0901 15.712C18.7713 15.712 17.5845 16.0235 16.5295 16.6466C15.4745 17.2696 14.6362 18.1098 14.0145 19.1671C13.3928 20.2055 13.0819 21.3761 13.0819 22.6789C13.0819 24.0005 13.3928 25.1994 14.0145 26.2756C14.6362 27.3329 15.4745 28.1731 16.5295 28.7961ZM22.3508 26.6721C21.6914 27.0686 20.9378 27.2668 20.0901 27.2668C19.2423 27.2668 18.4888 27.0686 17.8294 26.6721C17.17 26.2756 16.6519 25.7375 16.2752 25.0578C15.8984 24.3592 15.71 23.5662 15.71 22.6789C15.71 21.8104 15.8984 21.0363 16.2752 20.3566C16.6519 19.6769 17.17 19.1482 17.8294 18.7706C18.4888 18.3741 19.2423 18.1759 20.0901 18.1759C20.9378 18.1759 21.682 18.3741 22.3225 18.7706C22.9819 19.1482 23.5 19.6769 23.8767 20.3566C24.2724 21.0363 24.4702 21.8104 24.4702 22.6789C24.4702 23.5662 24.2818 24.3592 23.905 25.0578C23.5282 25.7375 23.0101 26.2756 22.3508 26.6721ZM35.2239 29.7307C34.2066 29.7307 33.2835 29.523 32.4545 29.1076C31.7491 28.7295 31.1651 28.2296 30.7025 27.608V35.0833H28.1592V15.9952H30.7025V17.844C31.1805 17.2204 31.774 16.7268 32.4828 16.3634C33.3117 15.9291 34.2254 15.712 35.2239 15.712C36.4484 15.712 37.5505 16.0235 38.5301 16.6466C39.5286 17.2696 40.3104 18.1098 40.8756 19.1671C41.4408 20.2244 41.7234 21.4139 41.7234 22.7355C41.7234 24.0571 41.4408 25.2466 40.8756 26.3039C40.3104 27.3612 39.5286 28.2014 38.5301 28.8244C37.5505 29.4286 36.4484 29.7307 35.2239 29.7307ZM34.8 27.3234C35.6478 27.3234 36.3919 27.1252 37.0324 26.7287C37.673 26.3322 38.1816 25.7941 38.5584 25.1144C38.9352 24.4159 39.1236 23.6134 39.1236 22.7072C39.1236 21.8198 38.9352 21.0268 38.5584 20.3283C38.1816 19.6297 37.673 19.0916 37.0324 18.714C36.3919 18.3175 35.6572 18.1193 34.8283 18.1193C33.9805 18.1193 33.2364 18.3175 32.5958 18.714C31.9553 19.0916 31.4561 19.6297 31.0981 20.3283C30.7402 21.0268 30.5612 21.8293 30.5612 22.7355C30.5612 23.6229 30.7307 24.4159 31.0699 25.1144C31.4278 25.7941 31.927 26.3322 32.5676 26.7287C33.2269 27.1252 33.9711 27.3234 34.8 27.3234ZM88.8706 42.7886C87.6575 43.5116 85.7322 45.4106 85.7373 48.6282C85.7437 52.7203 88.6271 55.4843 92.2404 55.4843C94.6689 55.4843 96.1493 54.2738 96.7988 53.364V55.1323C96.8523 57.1589 95.4064 59.2263 92.4198 59.2291C89.4596 59.2319 88.2239 57.7717 87.6878 57.1383C87.6632 57.1093 87.6401 57.0819 87.6183 57.0566L85.9611 58.7463C86.7033 59.7924 88.4495 61.677 92.295 61.6881C97.0647 61.7019 99.3858 58.3111 99.3735 55.3434C99.3651 53.3162 99.3646 46.863 99.3646 43.8783C98.567 44.3003 97.0214 44.9482 95.2163 45.027C95.838 45.4403 96.87 46.6555 96.9393 48.4989C97.0439 51.2835 95.2638 53.163 92.5462 53.0627C89.6913 52.9574 88.3872 50.6941 88.3845 48.7873C88.3813 46.5363 89.597 44.9442 91.4872 44.4347C90.9782 44.2505 89.7861 43.7092 88.8706 42.7886Z"
    fill="black"
  />
</svg>